# xmcd CD database file
#
# Track frame offsets:
#	150
#	10699
#	22777
#	31841
#	40991
#	50836
#	62619
#	73392
#	85800
#	94720
#	106905
#	118754
#	134506
#	145256
#	157050
#	167598
#	179677
#	188726
#	197877
#	207686
#	219470
#	230242
#	242626
#	251546
#	263730
#	275581
#	291333
#	302082
#	313876
#
# Disc length: 4215 seconds
#
# Revision: 0
# Processed by: cddbd v1.5.2PL0 Copyright (c) Steve Scherf et al.
# Submitted via: CDex 1.77
#
DISCID=bc10751d
DTITLE=Rudolf Mauz - Jazz Ballads
DYEAR=2013
DGENRE=Jazz
TTITLE0=Moonglow
TTITLE1=Summertime
TTITLE2=Night and Day
TTITLE3=Sentimental Journey
TTITLE4=A String of Pearls
TTITLE5=Mack The Knife
TTITLE6=Frankie and Johnny
TTITLE7=Autumn Leaves
TTITLE8=Petite Fleur
TTITLE9=Stranger On The Shore
TTITLE10=Creole Love Call
TTITLE11=Memories Of You
TTITLE12=On The Sunny Side Of The Street
TTITLE13=My Way
TTITLE14=Moonglow (Playalong)
TTITLE15=Summertime (Playalong)
TTITLE16=Night And Day (Playalong)
TTITLE17=Sentimental Journey (Playalong)
TTITLE18=A String Of Pearls (Playalong)
TTITLE19=Mack The Knife (Playalong)
TTITLE20=Frankie and Johnny (Playalong)
TTITLE21=Autumn Leaves (Playalong)
TTITLE22=Petite Fleur (Playalong)
TTITLE23=Stranger On The Shore (Playalong)
TTITLE24=Creole Love Call (Playalong)
TTITLE25=Memories Of You (Playalong)
TTITLE26=On The Sunny Side Of The Street (Playalong)
TTITLE27=My Way (Playalong)
TTITLE28=Musical Pitch - Stimmton
EXTD=YEAR: 2013
EXTT0=
EXTT1=
EXTT2=
EXTT3=
EXTT4=
EXTT5=
EXTT6=
EXTT7=
EXTT8=
EXTT9=
EXTT10=
EXTT11=
EXTT12=
EXTT13=
EXTT14=
EXTT15=
EXTT16=
EXTT17=
EXTT18=
EXTT19=
EXTT20=
EXTT21=
EXTT22=
EXTT23=
EXTT24=
EXTT25=
EXTT26=
EXTT27=
EXTT28=
PLAYORDER=
